{"title":"The Adventures of TinTin.2011.4K UHD dj29","uid":9699514,"size":5616150588,"categoryP":"video","categoryS":"hd___movies","magnet":"?xt=urn:btih:3720db72eda945fd5d5e4a52a90463ff1bb6941d&amp;dn=The+Adventures+of+TinTin.2011.4K+UHD+dj29&amp;tr=udp%3A%2F%2Ftracker.openbittorrent.com%3A80&amp;tr=udp%3A%2F%2Fopen.demonii.com%3A1337&amp;tr=udp%3A%2F%2Ftracker.coppersurfer.tk%3A6969&amp;tr=udp%3A%2F%2Fexodus.desync.com%3A6969","seeders":1,"leechers":15,"uploader":"dj29","files":1,"time":1393976069,"description":"General\n\nComplete name                  : The Adventures of TinTin.2011.x264.BDRip(1080p).mkv\nFormat                         : Matroska\nFormat version                 : Version 4 / Version 2\nFile size                      : 5.23 GiB\nDuration                       : 1h 46mn\nOverall bit rate               : 7 007 Kbps\nEncoded date                   : UTC 2014-03-04 21:59:22\nWriting application            : mkvmerge v6.8.0 ('Theme for Great Cities') 32bit built on Mar  2 2014 21:27:07\nWriting library                : libebml v1.3.0 + libmatroska v1.4.1\n\nVideo\nID                             : 1\nFormat                         : HEVC\nFormat/Info                    : High Efficiency Video Coding\nCodec ID                       : V_MPEGH/ISO/HEVC\nDuration                       : 1h 46mn\nBit rate                       : 5 359 Kbps\nWidth                          : 3 840 pixels\nHeight                         : 1 632 pixels\nDisplay aspect ratio           : 2.35:1\nFrame rate mode                : Constant\nFrame rate                     : 23.976 fps\nBits/(Pixel*Frame)             : 0.036\nStream size                    : 4.00 GiB (76%)\nLanguage                       : English\nDefault                        : Yes\nForced                         : No\n\nAudio\nID                             : 2\nFormat                         : DTS\nFormat/Info                    : Digital Theater Systems\nMode                           : 16\nFormat settings, Endianness    : Big\nCodec ID                       : A_DTS\nDuration                       : 1h 46mn\nBit rate mode                  : Constant\nBit rate                       : 1 509 Kbps\nChannel(s)                     : 6 channels\nChannel positions              : Front: L C R, Side: L R, LFE\nSampling rate                  : 48.0 KHz\nBit depth                      : 16 bits\nCompression mode               : Lossy\nStream size                    : 1.13 GiB (22%)\nLanguage                       : English\nDefault                        : No\nForced                         : No\n\nMenu\n00:00:00.000                   : en:Sir James\n00:05:39.297                   : en:M's Remains\n00:12:12.314                   : en:Paying The Piper\n00:17:11.363                   : en:Corrupt Or Kill\n00:25:36.868                   : en:The Toughest Training\n00:32:37.580                   : en:Evelyn Tremble\n00:37:55.314                   : en:A New Identity\n00:42:29.838                   : en:Mata Bond\n00:50:52.507                   : en:Spy School\n00:56:27.217                   : en:Stealing The Films\n01:02:19.610                   : en:Game Preparations\n01:11:58.981                   : en:Le Chiffre\n01:20:03.965                   : en:Mind Torture\n01:27:30.995                   : en:Smersh Headquarters\n01:34:12.813                   : en:Casino Royale\n01:40:30.482                   : en:End Credits\n\nscreenshots:\n\n\n[url=http://postimg.org/image/m411h40ur/full/][img]http://s13.postimg.org/nj2m5u1xz/vlcsnap_2014_03_04_23h21m35s66.png[/img][/url]\n\n[url=http://postimg.org/image/r6idbwa4z/full/][img]http://s13.postimg.org/l5koetniv/vlcsnap_2014_03_04_23h22m10s165.png[/img][/url]\n\n[url=http://postimg.org/image/o0xrlorir/full/][img]http://s13.postimg.org/icrgusn6f/vlcsnap_2014_03_04_23h23m37s15.png[/img][/url]","torrent":{"xt":"urn:btih:3720db72eda945fd5d5e4a52a90463ff1bb6941d","amp;dn":"The+Adventures+of+TinTin.2011.4K+UHD+dj29","amp;tr":["udp%3A%2F%2Ftracker.openbittorrent.com%3A80","udp%3A%2F%2Fopen.demonii.com%3A1337","udp%3A%2F%2Ftracker.coppersurfer.tk%3A6969","udp%3A%2F%2Fexodus.desync.com%3A6969"],"infoHash":"3720db72eda945fd5d5e4a52a90463ff1bb6941d","infoHashBuffer":{"type":"Buffer","data":[55,32,219,114,237,169,69,253,93,94,74,82,169,4,99,255,27,182,148,29]},"announce":[],"urlList":[]}}